<mxfile host="65bd71144e">
    <diagram id="-55225dTMH6KRCjdtvrq" name="Page-1">
        <mxGraphModel dx="520" dy="429" grid="1" gridSize="10" guides="1" tooltips="1" connect="1" arrows="1" fold="1" page="1" pageScale="1" pageWidth="827" pageHeight="1169" math="0" shadow="0">
            <root>
                <mxCell id="0"/>
                <mxCell id="1" parent="0"/>
                <mxCell id="2" value="assignment 5" style="swimlane;fillColor=#d80073;fontColor=#ffffff;strokeColor=#A50040;startSize=30;" parent="1" vertex="1">
                    <mxGeometry x="70" y="190" width="460" height="240" as="geometry"/>
                </mxCell>
                <mxCell id="5" value="" style="rounded=0;whiteSpace=wrap;html=1;fillColor=#f8cecc;strokeColor=#b85450;" vertex="1" parent="1">
                    <mxGeometry x="70" y="220" width="460" height="310" as="geometry"/>
                </mxCell>
                <mxCell id="6" value="&lt;h1&gt;calculating exponents with a loop&lt;/h1&gt;&lt;p&gt;&lt;br&gt;&lt;/p&gt;" style="text;html=1;strokeColor=none;fillColor=none;spacing=5;spacingTop=-20;whiteSpace=wrap;overflow=hidden;rounded=0;fontColor=#660033;" vertex="1" parent="1">
                    <mxGeometry x="80" y="230" width="220" height="120" as="geometry"/>
                </mxCell>
                <mxCell id="7" value="enter a number:" style="text;html=1;strokeColor=none;fillColor=none;align=center;verticalAlign=middle;whiteSpace=wrap;rounded=0;fontColor=#660033;" vertex="1" parent="1">
                    <mxGeometry x="80" y="335" width="90" height="30" as="geometry"/>
                </mxCell>
                <mxCell id="8" value="" style="endArrow=none;html=1;fontColor=#660033;strokeColor=#660033;" edge="1" parent="1">
                    <mxGeometry width="50" height="50" relative="1" as="geometry">
                        <mxPoint x="80" y="370" as="sourcePoint"/>
                        <mxPoint x="220" y="370" as="targetPoint"/>
                    </mxGeometry>
                </mxCell>
                <mxCell id="9" value="To the power:" style="text;html=1;strokeColor=none;fillColor=none;align=center;verticalAlign=middle;whiteSpace=wrap;rounded=0;fontColor=#660033;" vertex="1" parent="1">
                    <mxGeometry x="80" y="380" width="80" height="30" as="geometry"/>
                </mxCell>
                <mxCell id="10" value="" style="endArrow=none;html=1;fontColor=#660033;strokeColor=#660033;" edge="1" parent="1">
                    <mxGeometry width="50" height="50" relative="1" as="geometry">
                        <mxPoint x="80" y="410" as="sourcePoint"/>
                        <mxPoint x="220" y="410" as="targetPoint"/>
                    </mxGeometry>
                </mxCell>
                <mxCell id="11" value="calculate" style="rounded=1;whiteSpace=wrap;html=1;fontColor=#000000;fillColor=#e3c800;strokeColor=#B09500;" vertex="1" parent="1">
                    <mxGeometry x="80" y="430" width="80" height="40" as="geometry"/>
                </mxCell>
                <mxCell id="13" value="answer" style="text;html=1;strokeColor=none;fillColor=none;align=center;verticalAlign=middle;whiteSpace=wrap;rounded=0;fontColor=#660033;" vertex="1" parent="1">
                    <mxGeometry x="80" y="480" width="60" height="30" as="geometry"/>
                </mxCell>
            </root>
        </mxGraphModel>
    </diagram>
</mxfile>